# xmcd
#
# Track frame offsets:
# 150
# 4783
# 10359
# 14735
# 25579
# 37228
# 49188
# 60242
# 70692
# 81606
# 89413
# 92306
# 95324
# 104936
# 114487
# 123128
# 134636
# 146275
# 157156
# 163174
# 170929
# 175948
# 183489
# 191117
# 200223
# 209259
# 217672
# 228010
# 241313
# 251813
# 264042
# 277371
# 287448
# 293474
# 303725
# 315380
#
# Disc length: 4395 seconds
#
# Revision: 1
# Processed by: cddbd v1.5.1PL0 Copyright (c) Steve Scherf et al.
# Submitted via: Easy CD Ripper 1.45
#
DISCID=10112924
DTITLE=Africa and Blues - Africa and Blues
DYEAR=2001
DGENRE=Blues
TTITLE0=Garaya
TTITLE1=one string guitar
TTITLE2=mono-idiochord zither
TTITLE3=napoleon strickland
TTITLE4=jack owens train time
TTITLE5=with banwe zither
TTITLE6=blind lemon jefferson - see that my grave is kept clean
TTITLE7=othar turner - granny will dog bite
TTITLE8=batal - dance
TTITLE9=nyawala - dance song nigeria
TTITLE10=samuel brooks - quittin time song
TTITLE11=zanganyi - girls solo song
TTITLE12=big joe williams - stack o'dollars
TTITLE13=Adamou Megogue - goge, one stringed fiddle 
TTITLE14=Tikar woman's grinding song
TTITLE15=hard working woman
TTITLE16=cameroon - timbrh, lamellophone
TTITLE17=robert belfour - poor boy long way from home
TTITLE18=court music lamido of toungo, - Algeita oboes (nigeria)
TTITLE19=Adamou Megogue - small algeita
TTITLE20=napoleon strickland - the hounds
TTITLE21=baba chale mafala - unknown
TTITLE22=sid hemphill - emmaline take yo time
TTITLE23=mose vinson - rock'n roll blues
TTITLE24=tikar raphia - lammellophone cameroon
TTITLE25=double bells
TTITLE26=tikar mourning song
TTITLE27=mean conductor blues
TTITLE28=desire basil fouda - ibaye ibaye
TTITLE29=lemmy specia mabaso - 4th avenue blues
TTITLE30=kachamba brothers - mafelo twist
TTITLE31=kachamba brothers - chipiloni chanjamile
TTITLE32=choir, malawi - Elvis Viyuyu
TTITLE33=gombani lange and lucas shishonge - mwena kaji acitwa
TTITLE34=cote dívoire - dyula popular music
TTITLE35=ali farka toure - yer sabou yerkoy
EXTD=
EXTT0=
EXTT1=
EXTT2=
EXTT3=
EXTT4=
EXTT5=
EXTT6=
EXTT7=
EXTT8=
EXTT9=
EXTT10=
EXTT11=
EXTT12=
EXTT13=
EXTT14=
EXTT15=
EXTT16=
EXTT17=
EXTT18=
EXTT19=
EXTT20=
EXTT21=
EXTT22=
EXTT23=
EXTT24=
EXTT25=
EXTT26=
EXTT27=
EXTT28=
EXTT29=
EXTT30=
EXTT31=
EXTT32=
EXTT33=
EXTT34=
EXTT35=
PLAYORDER=
